<svg xmlns="http://www.w3.org/2000/svg" version="1.1" xmlns:xlink="http://www.w3.org/1999/xlink" width="512" height="512" x="0" y="0" viewBox="0 0 512 512" style="enable-background:new 0 0 512 512" xml:space="preserve" class=""><g><path d="M387.927 99.511a10.001 10.001 0 0 0-3.812-7.268C347.196 63.299 302.895 48 256 48 141.309 48 48 141.309 48 256c0 46.895 15.299 91.196 44.244 128.116a10 10 0 0 0 14.941.901l277.832-277.832a10 10 0 0 0 2.91-7.674zM101.257 362.66C79.46 331.226 68 294.585 68 256c0-103.664 84.336-188 188-188 38.585 0 75.226 11.46 106.66 33.257zM419.756 127.884a10 10 0 0 0-14.941-.901L126.983 404.815a10.002 10.002 0 0 0 .901 14.941C164.804 448.701 209.105 464 256 464c114.691 0 208-93.309 208-208 0-46.895-15.299-91.196-44.244-128.116zM256 444c-38.585 0-75.226-11.46-106.66-33.257L410.743 149.34C432.54 180.774 444 217.415 444 256c0 103.664-84.336 188-188 188z" fill="#f3abab" opacity="1" data-original="#f3abab" class=""></path><path d="M437.019 74.98C388.667 26.628 324.38 0 256 0S123.333 26.628 74.98 74.981C26.628 123.333 0 187.62 0 256s26.628 132.667 74.981 181.02C123.333 485.372 187.62 512 256 512s132.667-26.628 181.02-74.981C485.372 388.667 512 324.38 512 256s-26.628-132.667-74.981-181.02zm-14.142 347.897C378.303 467.452 319.038 492 256 492s-122.303-24.548-166.877-69.123C44.548 378.303 20 319.038 20 256S44.548 133.697 89.123 89.123C133.697 44.548 192.962 20 256 20s122.303 24.548 166.877 69.123C467.452 133.697 492 192.962 492 256s-24.548 122.303-69.123 166.877z" fill="#f3abab" opacity="1" data-original="#f3abab" class=""></path></g></svg>